# xmcd
#
# Track frame offsets:
#  150
#  21265
#  39500
#  49417
#  71817
#  90192
#  106210
#  120610
#
# Disc length: 1882 seconds
# Revision: 0
# Processed by: cddbd v1.5.1PL0 Copyright (c) Steve Scherf et al.
# Submitted via: dyson 0.5
#
DISCID=64075808
DTITLE=David Templeton - Time Alone
DYEAR=1900
DGENRE=
TTITLE0=Home
TTITLE1=Pyramid of the Moon
TTITLE2=Short But Sweet
TTITLE3=Time ALone
TTITLE4=Fishing With Uncle Joe
TTITLE5=Memory Flash
TTITLE6=25 Hours
TTITLE7=B Flat B Natural Override
EXTD=
EXTT0=
EXTT1=
EXTT2=
EXTT3=
EXTT4=
EXTT5=
EXTT6=
EXTT7=
PLAYORDER=
